<mxfile host="app.diagrams.net" modified="2023-11-14T19:12:39.265Z" agent="Mozilla/5.0 (Windows NT 10.0; Win64; x64) AppleWebKit/537.36 (KHTML, like Gecko) Chrome/116.0.0.0 Safari/537.36 OPR/102.0.0.0" etag="aOYoVAOVUWAFyuwIDHb8" version="22.1.1" type="github">
  <diagram name="Страница — 1" id="Z5LHu_sxuAvZLp9NZSKe">
    <mxGraphModel dx="1161" dy="658" grid="1" gridSize="10" guides="1" tooltips="1" connect="1" arrows="1" fold="1" page="1" pageScale="1" pageWidth="827" pageHeight="1169" math="0" shadow="0">
      <root>
        <mxCell id="0" />
        <mxCell id="1" parent="0" />
        <mxCell id="fHUEhQ4vaQ2urCNY-YZr-3" style="edgeStyle=orthogonalEdgeStyle;rounded=0;orthogonalLoop=1;jettySize=auto;html=1;exitX=0.5;exitY=1;exitDx=0;exitDy=0;entryX=0.5;entryY=0;entryDx=0;entryDy=0;" edge="1" parent="1" source="fHUEhQ4vaQ2urCNY-YZr-1" target="fHUEhQ4vaQ2urCNY-YZr-2">
          <mxGeometry relative="1" as="geometry" />
        </mxCell>
        <mxCell id="fHUEhQ4vaQ2urCNY-YZr-1" value="Початок" style="ellipse;whiteSpace=wrap;html=1;" vertex="1" parent="1">
          <mxGeometry x="180" y="210" width="120" height="80" as="geometry" />
        </mxCell>
        <mxCell id="fHUEhQ4vaQ2urCNY-YZr-5" style="edgeStyle=orthogonalEdgeStyle;rounded=0;orthogonalLoop=1;jettySize=auto;html=1;entryX=0.5;entryY=0;entryDx=0;entryDy=0;" edge="1" parent="1" source="fHUEhQ4vaQ2urCNY-YZr-2" target="fHUEhQ4vaQ2urCNY-YZr-4">
          <mxGeometry relative="1" as="geometry" />
        </mxCell>
        <mxCell id="fHUEhQ4vaQ2urCNY-YZr-2" value="Сlass year" style="shape=parallelogram;perimeter=parallelogramPerimeter;whiteSpace=wrap;html=1;fixedSize=1;" vertex="1" parent="1">
          <mxGeometry x="180" y="320" width="120" height="60" as="geometry" />
        </mxCell>
        <mxCell id="fHUEhQ4vaQ2urCNY-YZr-7" style="edgeStyle=orthogonalEdgeStyle;rounded=0;orthogonalLoop=1;jettySize=auto;html=1;exitX=0.5;exitY=1;exitDx=0;exitDy=0;entryX=0.5;entryY=0;entryDx=0;entryDy=0;" edge="1" parent="1" source="fHUEhQ4vaQ2urCNY-YZr-4" target="fHUEhQ4vaQ2urCNY-YZr-6">
          <mxGeometry relative="1" as="geometry" />
        </mxCell>
        <mxCell id="fHUEhQ4vaQ2urCNY-YZr-4" value="Class month" style="shape=parallelogram;perimeter=parallelogramPerimeter;whiteSpace=wrap;html=1;fixedSize=1;" vertex="1" parent="1">
          <mxGeometry x="180" y="420" width="120" height="60" as="geometry" />
        </mxCell>
        <mxCell id="fHUEhQ4vaQ2urCNY-YZr-9" style="edgeStyle=orthogonalEdgeStyle;rounded=0;orthogonalLoop=1;jettySize=auto;html=1;exitX=0.5;exitY=1;exitDx=0;exitDy=0;entryX=0.5;entryY=0;entryDx=0;entryDy=0;" edge="1" parent="1" source="fHUEhQ4vaQ2urCNY-YZr-6" target="fHUEhQ4vaQ2urCNY-YZr-8">
          <mxGeometry relative="1" as="geometry" />
        </mxCell>
        <mxCell id="fHUEhQ4vaQ2urCNY-YZr-6" value="Class day" style="shape=parallelogram;perimeter=parallelogramPerimeter;whiteSpace=wrap;html=1;fixedSize=1;" vertex="1" parent="1">
          <mxGeometry x="180" y="524.5" width="120" height="60" as="geometry" />
        </mxCell>
        <mxCell id="fHUEhQ4vaQ2urCNY-YZr-11" style="edgeStyle=orthogonalEdgeStyle;rounded=0;orthogonalLoop=1;jettySize=auto;html=1;exitX=0.5;exitY=1;exitDx=0;exitDy=0;entryX=0.5;entryY=0;entryDx=0;entryDy=0;" edge="1" parent="1" source="fHUEhQ4vaQ2urCNY-YZr-8" target="fHUEhQ4vaQ2urCNY-YZr-10">
          <mxGeometry relative="1" as="geometry" />
        </mxCell>
        <mxCell id="fHUEhQ4vaQ2urCNY-YZr-8" value="Class hours" style="shape=parallelogram;perimeter=parallelogramPerimeter;whiteSpace=wrap;html=1;fixedSize=1;" vertex="1" parent="1">
          <mxGeometry x="180" y="620" width="120" height="60" as="geometry" />
        </mxCell>
        <mxCell id="fHUEhQ4vaQ2urCNY-YZr-13" style="edgeStyle=orthogonalEdgeStyle;rounded=0;orthogonalLoop=1;jettySize=auto;html=1;exitX=0.5;exitY=1;exitDx=0;exitDy=0;" edge="1" parent="1" source="fHUEhQ4vaQ2urCNY-YZr-10" target="fHUEhQ4vaQ2urCNY-YZr-12">
          <mxGeometry relative="1" as="geometry" />
        </mxCell>
        <mxCell id="fHUEhQ4vaQ2urCNY-YZr-10" value="Class min" style="shape=parallelogram;perimeter=parallelogramPerimeter;whiteSpace=wrap;html=1;fixedSize=1;" vertex="1" parent="1">
          <mxGeometry x="180" y="720" width="120" height="60" as="geometry" />
        </mxCell>
        <mxCell id="fHUEhQ4vaQ2urCNY-YZr-15" style="edgeStyle=orthogonalEdgeStyle;rounded=0;orthogonalLoop=1;jettySize=auto;html=1;exitX=0.5;exitY=1;exitDx=0;exitDy=0;entryX=0.5;entryY=0;entryDx=0;entryDy=0;" edge="1" parent="1" source="fHUEhQ4vaQ2urCNY-YZr-12" target="fHUEhQ4vaQ2urCNY-YZr-14">
          <mxGeometry relative="1" as="geometry" />
        </mxCell>
        <mxCell id="fHUEhQ4vaQ2urCNY-YZr-12" value="Вводимо текст" style="shape=parallelogram;perimeter=parallelogramPerimeter;whiteSpace=wrap;html=1;fixedSize=1;" vertex="1" parent="1">
          <mxGeometry x="180" y="830" width="120" height="60" as="geometry" />
        </mxCell>
        <mxCell id="fHUEhQ4vaQ2urCNY-YZr-19" style="edgeStyle=orthogonalEdgeStyle;rounded=0;orthogonalLoop=1;jettySize=auto;html=1;exitX=0.5;exitY=1;exitDx=0;exitDy=0;entryX=0.5;entryY=0;entryDx=0;entryDy=0;" edge="1" parent="1" source="fHUEhQ4vaQ2urCNY-YZr-14" target="fHUEhQ4vaQ2urCNY-YZr-16">
          <mxGeometry relative="1" as="geometry">
            <Array as="points">
              <mxPoint x="240" y="1000" />
              <mxPoint x="110" y="1000" />
            </Array>
          </mxGeometry>
        </mxCell>
        <mxCell id="fHUEhQ4vaQ2urCNY-YZr-20" style="edgeStyle=orthogonalEdgeStyle;rounded=0;orthogonalLoop=1;jettySize=auto;html=1;exitX=0.5;exitY=1;exitDx=0;exitDy=0;entryX=0.5;entryY=0;entryDx=0;entryDy=0;" edge="1" parent="1" source="fHUEhQ4vaQ2urCNY-YZr-14" target="fHUEhQ4vaQ2urCNY-YZr-17">
          <mxGeometry relative="1" as="geometry" />
        </mxCell>
        <mxCell id="fHUEhQ4vaQ2urCNY-YZr-14" value="Вибор команди" style="rounded=1;whiteSpace=wrap;html=1;" vertex="1" parent="1">
          <mxGeometry x="180" y="930" width="120" height="60" as="geometry" />
        </mxCell>
        <mxCell id="fHUEhQ4vaQ2urCNY-YZr-24" style="edgeStyle=orthogonalEdgeStyle;rounded=0;orthogonalLoop=1;jettySize=auto;html=1;exitX=0.5;exitY=1;exitDx=0;exitDy=0;entryX=0.5;entryY=0;entryDx=0;entryDy=0;" edge="1" parent="1" source="fHUEhQ4vaQ2urCNY-YZr-16" target="fHUEhQ4vaQ2urCNY-YZr-23">
          <mxGeometry relative="1" as="geometry" />
        </mxCell>
        <mxCell id="fHUEhQ4vaQ2urCNY-YZr-16" value="Delete" style="rounded=0;whiteSpace=wrap;html=1;" vertex="1" parent="1">
          <mxGeometry x="50" y="1010" width="120" height="60" as="geometry" />
        </mxCell>
        <mxCell id="fHUEhQ4vaQ2urCNY-YZr-25" style="edgeStyle=orthogonalEdgeStyle;rounded=0;orthogonalLoop=1;jettySize=auto;html=1;exitX=0.5;exitY=1;exitDx=0;exitDy=0;" edge="1" parent="1" source="fHUEhQ4vaQ2urCNY-YZr-17">
          <mxGeometry relative="1" as="geometry">
            <mxPoint x="240" y="1140" as="targetPoint" />
          </mxGeometry>
        </mxCell>
        <mxCell id="fHUEhQ4vaQ2urCNY-YZr-17" value="Create" style="rounded=0;whiteSpace=wrap;html=1;" vertex="1" parent="1">
          <mxGeometry x="180" y="1010" width="120" height="60" as="geometry" />
        </mxCell>
        <mxCell id="fHUEhQ4vaQ2urCNY-YZr-26" style="edgeStyle=orthogonalEdgeStyle;rounded=0;orthogonalLoop=1;jettySize=auto;html=1;exitX=0.5;exitY=1;exitDx=0;exitDy=0;" edge="1" parent="1" source="fHUEhQ4vaQ2urCNY-YZr-18">
          <mxGeometry relative="1" as="geometry">
            <mxPoint x="240" y="1140" as="targetPoint" />
          </mxGeometry>
        </mxCell>
        <mxCell id="fHUEhQ4vaQ2urCNY-YZr-18" value="Edit" style="rounded=0;whiteSpace=wrap;html=1;" vertex="1" parent="1">
          <mxGeometry x="310" y="1010" width="120" height="60" as="geometry" />
        </mxCell>
        <mxCell id="fHUEhQ4vaQ2urCNY-YZr-21" style="edgeStyle=orthogonalEdgeStyle;rounded=0;orthogonalLoop=1;jettySize=auto;html=1;exitX=0.5;exitY=1;exitDx=0;exitDy=0;entryX=0.567;entryY=0.05;entryDx=0;entryDy=0;entryPerimeter=0;" edge="1" parent="1" source="fHUEhQ4vaQ2urCNY-YZr-14" target="fHUEhQ4vaQ2urCNY-YZr-18">
          <mxGeometry relative="1" as="geometry">
            <Array as="points">
              <mxPoint x="240" y="1000" />
              <mxPoint x="378" y="1000" />
            </Array>
          </mxGeometry>
        </mxCell>
        <mxCell id="fHUEhQ4vaQ2urCNY-YZr-23" value="Кінець" style="ellipse;whiteSpace=wrap;html=1;" vertex="1" parent="1">
          <mxGeometry x="180" y="1140" width="120" height="80" as="geometry" />
        </mxCell>
      </root>
    </mxGraphModel>
  </diagram>
</mxfile>
